Coordinates
version=1
nRows=12
nColumns=24
inDegrees=yes

Units are S.I. units (second, meters, Newtons, ...)
Angles are in degrees.

endheader
time	pelvis_tilt	pelvis_list	pelvis_rotation	pelvis_tx	pelvis_ty	pelvis_tz	hip_flexion_r	hip_adduction_r	hip_rotation_r	knee_angle_r	ankle_angle_r	subtalar_angle_r	mtp_angle_r	hip_flexion_l	hip_adduction_l	hip_rotation_l	knee_angle_l	ankle_angle_l	subtalar_angle_l	mtp_angle_l	lumbar_extension	lumbar_bending	lumbar_rotation
      3.27000000	     -6.01284596	    -17.50654779	     11.78654001	     -2.54737582	     -0.05867154	      0.47384109	     31.78223065	     18.85039208	     -3.84693320	    -28.88004982	      0.93072770	      0.32389820	      4.06130653	     18.54514746	    -21.33434424	      4.11990418	    -67.84726301	    -33.67805952	     19.46064017	     29.94104011	      5.53929130	     18.63312987	    -10.46775321
      3.27500000	     -5.95403859	    -17.52545756	     11.45998956	     -2.53999670	     -0.05753617	      0.47433785	     30.94118278	     19.25374621	     -3.39906259	    -28.51522995	      1.38313954	      0.41276076	      3.93654595	     19.34902257	    -21.23200121	      4.27561343	    -68.66975511	    -32.59181533	     18.50832877	     30.33164114	      5.39907208	     18.68267940	     -9.89941808
      3.28000000	     -5.87071486	    -17.51952146	     11.19866760	     -2.53265716	     -0.05631484	      0.47482179	     30.05024217	     19.62433933	     -2.89650351	    -28.10511922	      1.75996468	      0.34271566	      3.79967626	     20.15100899	    -21.08105268	      4.49465489	    -69.41675829	    -31.41903363	     17.70780192	     30.67948170	      5.24438292	     18.68380361	     -9.42494211
      3.28500000	     -5.81561579	    -17.48919603	     11.02829420	     -2.52537552	     -0.05503866	      0.47515997	     29.17904711	     19.90064571	     -2.45244974	    -27.66001608	      2.09659669	      0.31130150	      3.79498291	     21.01684776	    -20.83039333	      4.82934774	    -70.07053465	    -30.28133853	     16.98361052	     31.13011412	      5.15332827	     18.63288099	     -9.11636273
      3.29000000	     -5.72856963	    -17.47949058	     10.84143655	     -2.51804282	     -0.05369038	      0.47557682	     28.23692244	     20.25429534	     -1.83619587	    -27.15709490	      2.27139810	     -0.05247849	      3.43923633	     21.84335468	    -20.63077667	      5.13086848	    -70.67597220	    -28.95529294	     16.52738701	     31.30122034	      5.03789428	     18.61500963	     -8.66268278
      3.29500000	     -5.69794244	    -17.38677801	     10.74218106	     -2.51078406	     -0.05234611	      0.47580981	     27.36001804	     20.41894434	     -1.39686868	    -26.68013264	      2.57838493	     -0.12806872	      3.40429575	     22.73213317	    -20.25212504	      5.50363572	    -71.16242983	    -27.86273884	     15.93050495	     31.69302977	      5.00341249	     18.47839445	     -8.44143340
      3.30000000	     -5.63950430	    -17.31390211	     10.60250828	     -2.50343552	     -0.05092308	      0.47618142	     26.40164322	     20.68563052	     -0.70455153	    -26.13463848	      2.66664984	     -0.64906360	      2.87980620	     23.55760394	    -19.92769530	      5.85228104	    -71.59175234	    -26.52608895	     15.77339096	     31.84825413	      4.94423460	     18.36569118	     -8.08375405
      3.30500000	     -5.60236122	    -17.19553523	     10.46923277	     -2.49614450	     -0.04951338	      0.47648060	     25.46651386	     20.86410653	     -0.07576241	    -25.61892736	      2.86102856	     -0.94807694	      2.44373144	     24.38189961	    -19.52707982	      6.16599743	    -71.92975399	    -25.35815056	     15.47242558	     32.02619963	      4.90027941	     18.20251187	     -7.78323437
      3.31000000	     -5.59729227	    -17.01257924	     10.30633811	     -2.48883809	     -0.04808285	      0.47680107	     24.53291042	     20.97580329	      0.60515357	    -25.09561234	      3.02844276	     -1.30047169	      2.02795773	     25.17908709	    -19.04900499	      6.42941639	    -72.16114787	    -24.29408482	     15.23301677	     32.26015611	      4.88161713	     17.96469873	     -7.44731483
      3.31500000	     -5.57856231	    -16.84258088	     10.10681084	     -2.48150217	     -0.04665694	      0.47715870	     23.55990381	     21.11670597	      1.37474493	    -24.54775829	      3.17800304	     -1.66852414	      1.49764860	     25.93065161	    -18.61161867	      6.62982872	    -72.31743522	    -23.27199536	     15.00810160	     32.43894067	      4.84984500	     17.74961557	     -7.08285362
      3.32000000	     -5.59062841	    -16.60436902	      9.85898895	     -2.47423307	     -0.04524408	      0.47754803	     22.60626483	     21.18362238	      2.18666153	    -24.02616547	      3.31990528	     -2.02951365	      0.99273105	     26.65251899	    -18.10153560	      6.76078841	    -72.38358249	    -22.32945287	     14.79564823	     32.61686402	      4.81506119	     17.46228058	     -6.67472836
      3.32500000	     -5.60957348	    -16.33826653	      9.56510950	     -2.46696154	     -0.04384915	      0.47797117	     21.63845974	     21.22563789	      3.05815505	    -23.50158136	      3.44860309	     -2.41143019	      0.45028786	     27.33134543	    -17.58533121	      6.81576484	    -72.36735169	    -21.44621542	     14.58200768	     32.75766038	      4.77703932	     17.15385200	     -6.22160675
